<svg width="30" height="30" viewBox="0 0 30 30" fill="none" xmlns="http://www.w3.org/2000/svg">
<path d="M4.05564 7.59631C4.83989 7.04817 6.0221 7.15329 6.72626 7.7348L5.91865 6.56093C5.26872 5.63402 5.5015 4.63118 6.42924 3.98042C7.35699 3.33217 9.98589 5.07503 9.98589 5.07503C9.33013 4.13894 9.45277 2.95256 10.3889 2.29596C10.8389 1.98149 11.3954 1.85855 11.936 1.95413C12.4767 2.04971 12.9573 2.35601 13.2722 2.80572L21.9657 15.0867L20.8577 25.8284L11.6111 22.4561L3.54588 10.498C3.38861 10.2741 3.27703 10.0214 3.21753 9.75427C3.15803 9.48718 3.15177 9.21098 3.19912 8.94147C3.24647 8.67196 3.34649 8.41443 3.49346 8.18362C3.64043 7.9528 3.83147 7.75322 4.05564 7.59631Z" fill="#EF9645"/>
<path d="M2.24845 14.4285C2.24845 14.4285 1.30402 13.0519 2.68146 12.1083C4.05723 11.1647 5.00083 12.5405 5.00083 12.5405L9.38178 18.9296C9.53278 18.6777 9.69798 18.429 9.88236 18.1837L3.80193 9.31756C3.80193 9.31756 2.85833 7.94179 4.23494 6.99819C5.61071 6.05459 6.55431 7.43036 6.55431 7.43036L12.2735 15.7709C12.4862 15.5974 12.704 15.423 12.9284 15.252L6.29818 5.58154C6.29818 5.58154 5.35458 4.20577 6.73118 3.26217C8.10695 2.31857 9.05056 3.69434 9.05056 3.69434L15.6808 13.3631C15.9244 13.2138 16.1655 13.0845 16.4075 12.9476L10.2102 3.91042C10.2102 3.91042 9.26664 2.53465 10.6424 1.59105C12.0182 0.647449 12.9618 2.02322 12.9618 2.02322L19.5144 11.5794L20.5106 13.0327C16.3824 15.8644 15.9895 21.1914 18.3481 24.6313C18.8195 25.3196 19.5078 24.8482 19.5078 24.8482C16.677 20.7192 17.5413 16.0796 21.6703 13.2488L20.453 7.15671C20.453 7.15671 19.9983 5.5515 21.6027 5.09597C23.2079 4.64128 23.6634 6.24648 23.6634 6.24648L25.0692 10.4214C25.6266 12.0766 26.2198 13.726 27.0048 15.2862C29.2216 19.6913 27.8975 25.1661 23.7177 28.0336C19.1582 31.1597 12.9251 29.9975 9.79809 25.4389L2.24845 14.4285Z" fill="#FFDC5D"/>
<path d="M10.0117 26.6979C6.67443 26.6979 3.30216 23.3256 3.30216 19.9884C3.30216 19.527 2.96426 19.1541 2.50289 19.1541C2.04152 19.1541 1.63354 19.527 1.63354 19.9884C1.63354 24.9942 5.00581 28.3665 10.0117 28.3665C10.473 28.3665 10.846 27.9585 10.846 27.4971C10.846 27.0357 10.473 26.6979 10.0117 26.6979Z" fill="#5DADEC"/>
<path d="M5.84015 28.3314C3.33723 28.3314 1.66861 26.6627 1.66861 24.1598C1.66861 23.9386 1.58071 23.7263 1.42425 23.5699C1.26779 23.4134 1.05558 23.3255 0.834307 23.3255C0.613035 23.3255 0.400826 23.4134 0.244363 23.5699C0.0878999 23.7263 0 23.9386 0 24.1598C0 27.4971 2.50292 30 5.84015 30C6.06142 30 6.27363 29.9121 6.43009 29.7556C6.58655 29.5991 6.67445 29.3869 6.67445 29.1657C6.67445 28.9444 6.58655 28.7322 6.43009 28.5757C6.27363 28.4193 6.06142 28.3314 5.84015 28.3314ZM20.0234 1.63354C19.8021 1.63354 19.5899 1.72144 19.4334 1.87791C19.277 2.03437 19.1891 2.24658 19.1891 2.46785C19.1891 2.68912 19.277 2.90133 19.4334 3.0578C19.5899 3.21426 19.8021 3.30216 20.0234 3.30216C23.3606 3.30216 26.6978 6.29648 26.6978 9.97661C26.6978 10.1979 26.7857 10.4101 26.9422 10.5666C27.0986 10.723 27.3108 10.8109 27.5321 10.8109C27.7534 10.8109 27.9656 10.723 28.1221 10.5666C28.2785 10.4101 28.3664 10.1979 28.3664 9.97661C28.3664 5.37624 25.0292 1.63354 20.0234 1.63354Z" fill="#5DADEC"/>
<path d="M24.1949 0C23.7344 0 23.3606 0.338729 23.3606 0.799266C23.3606 1.2598 23.7344 1.66861 24.1949 1.66861C26.6978 1.66861 28.3314 3.52495 28.3314 5.80511C28.3314 6.26564 28.7394 6.63941 29.2007 6.63941C29.6621 6.63941 30 6.26564 30 5.80511C30 2.60387 27.5321 0 24.1949 0Z" fill="#5DADEC"/>
</svg>
