<svg width="26" height="24" viewBox="0 0 26 24" fill="none" xmlns="http://www.w3.org/2000/svg">
<path d="M21.7144 10.2857C21.7144 7.86084 20.7512 5.53532 19.0365 3.8207C17.3219 2.10609 14.9964 1.14282 12.5716 1.14282C10.1467 1.14282 7.82121 2.10609 6.10659 3.8207C4.39197 5.53532 3.42871 7.86084 3.42871 10.2857" stroke="#0F172A" stroke-width="1.5" stroke-linecap="round" stroke-linejoin="round"/>
<path d="M21.7145 18.2855V18.857C21.7145 19.4632 21.4737 20.0446 21.045 20.4732C20.6164 20.9019 20.035 21.1427 19.4288 21.1427H15.4288M1.14307 15.3575V13.2135C1.14314 12.7038 1.31358 12.2088 1.6273 11.8071C1.94102 11.4053 2.38001 11.12 2.8745 10.9964L4.86307 10.4981C4.96411 10.4729 5.06957 10.4711 5.17142 10.4928C5.27328 10.5144 5.36886 10.559 5.45092 10.6231C5.53298 10.6872 5.59937 10.7692 5.64504 10.8628C5.6907 10.9564 5.71446 11.0591 5.7145 11.1633V17.4067C5.71468 17.511 5.69104 17.6141 5.64538 17.7079C5.59972 17.8017 5.53325 17.8839 5.45102 17.9482C5.3688 18.0124 5.27299 18.0571 5.17091 18.0787C5.06882 18.1003 4.96314 18.0984 4.86192 18.073L2.87335 17.5758C2.37907 17.452 1.94034 17.1666 1.62685 16.7649C1.31336 16.3632 1.14308 15.8682 1.14307 15.3587V15.3575ZM24.0002 15.3575V13.2135C24.0001 12.7038 23.8297 12.2088 23.516 11.8071C23.2023 11.4053 22.7633 11.12 22.2688 10.9964L20.2802 10.4981C20.1792 10.4729 20.0737 10.4711 19.9719 10.4928C19.87 10.5144 19.7744 10.559 19.6924 10.6231C19.6103 10.6872 19.5439 10.7692 19.4982 10.8628C19.4526 10.9564 19.4288 11.0591 19.4288 11.1633V17.4067C19.4286 17.5109 19.4523 17.6138 19.4979 17.7075C19.5435 17.8013 19.6098 17.8834 19.6919 17.9476C19.774 18.0118 19.8696 18.0565 19.9716 18.0782C20.0735 18.1 20.1791 18.0982 20.2802 18.073L22.2688 17.5758C22.7633 17.4522 23.2023 17.1669 23.516 16.7652C23.8297 16.3634 24.0001 15.8684 24.0002 15.3587V15.3575Z" stroke="#0F172A" stroke-width="1.5"/>
<path d="M14.2859 22.857H10.8574C10.4027 22.857 9.96666 22.6764 9.64517 22.3549C9.32368 22.0334 9.14307 21.5974 9.14307 21.1428C9.14307 20.6881 9.32368 20.2521 9.64517 19.9306C9.96666 19.6091 10.4027 19.4285 10.8574 19.4285H14.2859C14.7406 19.4285 15.1766 19.6091 15.4981 19.9306C15.8196 20.2521 16.0002 20.6881 16.0002 21.1428C16.0002 21.5974 15.8196 22.0334 15.4981 22.3549C15.1766 22.6764 14.7406 22.857 14.2859 22.857Z" stroke="#0F172A" stroke-width="1.5"/>
</svg>
