<svg width="160" height="46" viewBox="0 0 160 46" fill="none" xmlns="http://www.w3.org/2000/svg">
<path d="M16.969 22.011L21.4941 17.486H36.2005V25.4048H0V22.011H16.969Z" fill="#6E47FF"/>
<path d="M27.1504 11.8296L30.5442 8.43583H36.2005V16.3547H0V11.8296H27.1504Z" fill="#6E47FF"/>
<path d="M0 0.516968H36.2005V7.30457H0V0.516968Z" fill="#6E47FF"/>
<path d="M6.7876 31.0612L11.3127 26.5361H36.2005V36.7175H0V31.0612H6.7876Z" fill="#6E47FF"/>
<mask id="mask0_540_2283" style="mask-type:alpha" maskUnits="userSpaceOnUse" x="38" y="6" width="122" height="40">
<path d="M58.7621 7.15698V31.8391H54.2547L43.5165 16.3043H43.3358V31.8391H38.1173V7.15698H42.697L53.3508 22.6798H53.5678V7.15698H58.7621Z" fill="#0F172A"/>
<path d="M71.3412 32.2007C69.4692 32.2007 67.8502 31.803 66.4843 31.0076C65.1265 30.2041 64.078 29.0873 63.3388 27.6572C62.5996 26.219 62.23 24.5518 62.23 22.6556C62.23 20.7434 62.5996 19.0722 63.3388 17.6421C64.078 16.2039 65.1265 15.0871 66.4843 14.2917C67.8502 13.4882 69.4692 13.0865 71.3412 13.0865C73.2133 13.0865 74.8282 13.4882 76.1861 14.2917C77.5519 15.0871 78.6045 16.2039 79.3436 17.6421C80.0828 19.0722 80.4524 20.7434 80.4524 22.6556C80.4524 24.5518 80.0828 26.219 79.3436 27.6572C78.6045 29.0873 77.5519 30.2041 76.1861 31.0076C74.8282 31.803 73.2133 32.2007 71.3412 32.2007ZM71.3653 28.2236C72.217 28.2236 72.928 27.9826 73.4985 27.5005C74.0689 27.0104 74.4988 26.3435 74.788 25.4999C75.0853 24.6563 75.234 23.6961 75.234 22.6195C75.234 21.5429 75.0853 20.5827 74.788 19.7391C74.4988 18.8955 74.0689 18.2286 73.4985 17.7385C72.928 17.2484 72.217 17.0033 71.3653 17.0033C70.5056 17.0033 69.7825 17.2484 69.196 17.7385C68.6175 18.2286 68.1796 18.8955 67.8823 19.7391C67.5931 20.5827 67.4485 21.5429 67.4485 22.6195C67.4485 23.6961 67.5931 24.6563 67.8823 25.4999C68.1796 26.3435 68.6175 27.0104 69.196 27.5005C69.7825 27.9826 70.5056 28.2236 71.3653 28.2236Z" fill="#0F172A"/>
<path d="M83.7908 31.8391V13.3275H88.7682V16.5574H88.961C89.2985 15.4085 89.8649 14.5407 90.6603 13.9542C91.4557 13.3597 92.3717 13.0624 93.4081 13.0624C93.6652 13.0624 93.9424 13.0784 94.2397 13.1106C94.537 13.1427 94.7981 13.1869 95.0231 13.2432V17.7988C94.782 17.7264 94.4486 17.6622 94.0228 17.6059C93.5969 17.5497 93.2073 17.5216 92.8537 17.5216C92.0985 17.5216 91.4236 17.6863 90.829 18.0157C90.2425 18.3371 89.7765 18.787 89.431 19.3655C89.0936 19.944 88.9249 20.6109 88.9249 21.3661V31.8391H83.7908Z" fill="#0F172A"/>
<path d="M108.56 13.3275V17.1841H97.1352V13.3275H108.56ZM99.7504 31.8391V11.9898C99.7504 10.648 100.012 9.53521 100.534 8.65141C101.064 7.7676 101.787 7.10475 102.703 6.66285C103.619 6.22095 104.66 6 105.825 6C106.612 6 107.331 6.06026 107.982 6.18078C108.641 6.3013 109.131 6.40976 109.452 6.50618L108.536 10.3628C108.335 10.2985 108.086 10.2382 107.789 10.182C107.5 10.1257 107.202 10.0976 106.897 10.0976C106.142 10.0976 105.616 10.2744 105.318 10.6279C105.021 10.9734 104.872 11.4595 104.872 12.0862V31.8391H99.7504Z" fill="#0F172A"/>
<path d="M119.398 32.2007C117.526 32.2007 115.907 31.803 114.541 31.0076C113.183 30.2041 112.135 29.0873 111.396 27.6572C110.656 26.219 110.287 24.5518 110.287 22.6556C110.287 20.7434 110.656 19.0722 111.396 17.6421C112.135 16.2039 113.183 15.0871 114.541 14.2917C115.907 13.4882 117.526 13.0865 119.398 13.0865C121.27 13.0865 122.885 13.4882 124.243 14.2917C125.609 15.0871 126.661 16.2039 127.4 17.6421C128.14 19.0722 128.509 20.7434 128.509 22.6556C128.509 24.5518 128.14 26.219 127.4 27.6572C126.661 29.0873 125.609 30.2041 124.243 31.0076C122.885 31.803 121.27 32.2007 119.398 32.2007ZM119.422 28.2236C120.274 28.2236 120.985 27.9826 121.555 27.5005C122.126 27.0104 122.556 26.3435 122.845 25.4999C123.142 24.6563 123.291 23.6961 123.291 22.6195C123.291 21.5429 123.142 20.5827 122.845 19.7391C122.556 18.8955 122.126 18.2286 121.555 17.7385C120.985 17.2484 120.274 17.0033 119.422 17.0033C118.562 17.0033 117.839 17.2484 117.253 17.7385C116.674 18.2286 116.236 18.8955 115.939 19.7391C115.65 20.5827 115.505 21.5429 115.505 22.6195C115.505 23.6961 115.65 24.6563 115.939 25.4999C116.236 26.3435 116.674 27.0104 117.253 27.5005C117.839 27.9826 118.562 28.2236 119.422 28.2236Z" fill="#0F172A"/>
<path d="M136.982 7.15698V31.8391H131.847V7.15698H136.982Z" fill="#0F172A"/>
<path d="M145.746 26.5122L145.758 20.3537H146.506L152.435 13.3275H158.328L150.362 22.6315H149.145L145.746 26.5122ZM141.094 31.8391V7.15698H146.228V31.8391H141.094ZM152.664 31.8391L147.217 23.7765L150.639 20.1489L158.678 31.8391H152.664Z" fill="#0F172A"/>
<path d="M38.8967 35.7472V43.1518H38V35.7472H38.8967Z" fill="#0F172A"/>
<path d="M43.9265 39.811V43.1518H43.0732V37.5983H43.8976V38.4661H43.9699C44.1001 38.184 44.2977 37.9575 44.5628 37.7863C44.828 37.6128 45.1703 37.526 45.5897 37.526C45.9657 37.526 46.2947 37.6031 46.5767 37.7574C46.8587 37.9093 47.0781 38.1407 47.2347 38.4516C47.3914 38.7601 47.4697 39.1506 47.4697 39.623V43.1518H46.6165V39.6809C46.6165 39.2446 46.5032 38.9047 46.2766 38.6613C46.05 38.4154 45.7391 38.2925 45.3438 38.2925C45.0714 38.2925 44.828 38.3516 44.6135 38.4697C44.4013 38.5878 44.2338 38.7601 44.1109 38.9867C43.988 39.2133 43.9265 39.4881 43.9265 39.811Z" fill="#0F172A"/>
<path d="M55.8657 37.5983L53.812 43.1518H52.9443L50.8907 37.5983H51.8163L53.3492 42.0238H53.4071L54.9401 37.5983H55.8657Z" fill="#0F172A"/>
<path d="M61.6159 43.2675C61.0808 43.2675 60.6192 43.1494 60.2312 42.9132C59.8455 42.6746 59.5478 42.3419 59.3381 41.9153C59.1308 41.4862 59.0272 40.9873 59.0272 40.4185C59.0272 39.8496 59.1308 39.3482 59.3381 38.9144C59.5478 38.4781 59.8395 38.1382 60.2131 37.8948C60.5891 37.6489 61.0278 37.526 61.5291 37.526C61.8184 37.526 62.104 37.5742 62.386 37.6706C62.668 37.7671 62.9247 37.9237 63.1561 38.1407C63.3875 38.3552 63.5719 38.6396 63.7093 38.9939C63.8467 39.3483 63.9154 39.7845 63.9154 40.3028V40.6643H59.6346V39.9267H63.0477C63.0477 39.6134 62.985 39.3338 62.8597 39.0879C62.7367 38.8421 62.5608 38.648 62.3318 38.5058C62.1052 38.3636 61.8377 38.2925 61.5291 38.2925C61.1893 38.2925 60.8952 38.3769 60.6469 38.5456C60.4011 38.7119 60.2119 38.9288 60.0793 39.1964C59.9467 39.464 59.8805 39.7508 59.8805 40.0569V40.5486C59.8805 40.968 59.9528 41.3235 60.0974 41.6152C60.2444 41.9044 60.4481 42.125 60.7084 42.2769C60.9687 42.4263 61.2712 42.501 61.6159 42.501C61.8401 42.501 62.0425 42.4697 62.2233 42.407C62.4065 42.3419 62.5644 42.2455 62.697 42.1178C62.8295 41.9876 62.932 41.8261 63.0043 41.6333L63.8286 41.8647C63.7419 42.1443 63.596 42.3901 63.3912 42.6022C63.1863 42.812 62.9332 42.9759 62.6319 43.094C62.3306 43.2097 61.9919 43.2675 61.6159 43.2675Z" fill="#0F172A"/>
<path d="M71.6416 38.8421L70.8751 39.059C70.8269 38.9313 70.7557 38.8071 70.6617 38.6866C70.5701 38.5637 70.4448 38.4624 70.2857 38.3829C70.1266 38.3034 69.923 38.2636 69.6747 38.2636C69.3348 38.2636 69.0516 38.3419 68.825 38.4986C68.6009 38.6529 68.4888 38.8493 68.4888 39.0879C68.4888 39.3 68.5659 39.4676 68.7202 39.5905C68.8744 39.7134 69.1155 39.8159 69.4433 39.8978L70.2676 40.1003C70.7642 40.2208 71.1342 40.4052 71.3776 40.6535C71.6211 40.8993 71.7428 41.2163 71.7428 41.6044C71.7428 41.9225 71.6512 42.207 71.468 42.4576C71.2872 42.7083 71.0341 42.906 70.7087 43.0506C70.3833 43.1952 70.0049 43.2675 69.5735 43.2675C69.007 43.2675 68.5382 43.1446 68.167 42.8987C67.7958 42.6529 67.5608 42.2937 67.462 41.8213L68.2719 41.6188C68.349 41.9177 68.4948 42.1419 68.7093 42.2913C68.9263 42.4408 69.2095 42.5155 69.559 42.5155C69.9567 42.5155 70.2725 42.4311 70.5063 42.2624C70.7425 42.0913 70.8606 41.8864 70.8606 41.6477C70.8606 41.4549 70.7931 41.2934 70.6581 41.1633C70.5231 41.0307 70.3158 40.9319 70.0362 40.8668L69.1107 40.6499C68.6021 40.5293 68.2285 40.3425 67.9898 40.0894C67.7536 39.8339 67.6355 39.5146 67.6355 39.1313C67.6355 38.818 67.7235 38.5408 67.8995 38.2997C68.0778 38.0587 68.3201 37.8695 68.6262 37.7321C68.9347 37.5947 69.2842 37.526 69.6747 37.526C70.2243 37.526 70.6557 37.6465 70.9691 37.8876C71.2848 38.1286 71.509 38.4468 71.6416 38.8421Z" fill="#0F172A"/>
<path d="M77.9368 37.5983V38.3214H75.0589V37.5983H77.9368ZM75.8977 36.2678H76.7509V41.561C76.7509 41.802 76.7859 41.9828 76.8558 42.1033C76.9281 42.2214 77.0197 42.301 77.1306 42.3419C77.2439 42.3805 77.3632 42.3998 77.4885 42.3998C77.5825 42.3998 77.6597 42.395 77.7199 42.3853C77.7802 42.3733 77.8284 42.3636 77.8645 42.3564L78.0381 43.1229C77.9802 43.1446 77.8995 43.1663 77.7958 43.188C77.6922 43.2121 77.5608 43.2241 77.4017 43.2241C77.1607 43.2241 76.9245 43.1723 76.6931 43.0687C76.4641 42.965 76.2737 42.8071 76.1218 42.595C75.9724 42.3829 75.8977 42.1154 75.8977 41.7924V36.2678Z" fill="#0F172A"/>
<path d="M81.7148 43.1518V37.5983H82.5392V38.4661H82.6115C82.7272 38.1696 82.914 37.9394 83.1719 37.7755C83.4298 37.6092 83.7395 37.526 84.1011 37.526C84.4674 37.526 84.7724 37.6092 85.0158 37.7755C85.2617 37.9394 85.4533 38.1696 85.5907 38.4661H85.6485C85.7907 38.1792 86.0041 37.9514 86.2885 37.7827C86.5729 37.6116 86.914 37.526 87.3117 37.526C87.8082 37.526 88.2144 37.6815 88.5301 37.9924C88.8459 38.3009 89.0038 38.7818 89.0038 39.435V43.1518H88.1505V39.435C88.1505 39.0253 88.0384 38.7324 87.8142 38.5564C87.5901 38.3805 87.3261 38.2925 87.0224 38.2925C86.632 38.2925 86.3295 38.4106 86.1149 38.6468C85.9004 38.8806 85.7931 39.1771 85.7931 39.5363V43.1518H84.9254V39.3483C84.9254 39.0325 84.823 38.7782 84.6181 38.5854C84.4132 38.3901 84.1493 38.2925 83.8263 38.2925C83.6045 38.2925 83.3972 38.3516 83.2044 38.4697C83.014 38.5878 82.8597 38.7517 82.7416 38.9614C82.6259 39.1687 82.5681 39.4085 82.5681 39.6809V43.1518H81.7148Z" fill="#0F172A"/>
<path d="M95.3867 43.2675C94.8516 43.2675 94.39 43.1494 94.002 42.9132C93.6163 42.6746 93.3186 42.3419 93.1089 41.9153C92.9016 41.4862 92.798 40.9873 92.798 40.4185C92.798 39.8496 92.9016 39.3482 93.1089 38.9144C93.3186 38.4781 93.6103 38.1382 93.9839 37.8948C94.3599 37.6489 94.7986 37.526 95.2999 37.526C95.5892 37.526 95.8748 37.5742 96.1568 37.6706C96.4388 37.7671 96.6956 37.9237 96.9269 38.1407C97.1583 38.3552 97.3427 38.6396 97.4801 38.9939C97.6175 39.3483 97.6862 39.7845 97.6862 40.3028V40.6643H93.4054V39.9267H96.8185C96.8185 39.6134 96.7558 39.3338 96.6305 39.0879C96.5075 38.8421 96.3316 38.648 96.1026 38.5058C95.876 38.3636 95.6085 38.2925 95.2999 38.2925C94.9601 38.2925 94.666 38.3769 94.4178 38.5456C94.1719 38.7119 93.9827 38.9288 93.8501 39.1964C93.7175 39.464 93.6513 39.7508 93.6513 40.0569V40.5486C93.6513 40.968 93.7236 41.3235 93.8682 41.6152C94.0152 41.9044 94.2189 42.125 94.4792 42.2769C94.7395 42.4263 95.042 42.501 95.3867 42.501C95.6109 42.501 95.8134 42.4697 95.9941 42.407C96.1773 42.3419 96.3352 42.2455 96.4678 42.1178C96.6003 41.9876 96.7028 41.8261 96.7751 41.6333L97.5994 41.8647C97.5127 42.1443 97.3668 42.3901 97.162 42.6022C96.9571 42.812 96.704 42.9759 96.4027 43.094C96.1014 43.2097 95.7627 43.2675 95.3867 43.2675Z" fill="#0F172A"/>
<path d="M102.332 39.811V43.1518H101.479V37.5983H102.303V38.4661H102.375C102.505 38.184 102.703 37.9575 102.968 37.7863C103.233 37.6128 103.576 37.526 103.995 37.526C104.371 37.526 104.7 37.6031 104.982 37.7574C105.264 37.9093 105.483 38.1407 105.64 38.4516C105.797 38.7601 105.875 39.1506 105.875 39.623V43.1518H105.022V39.6809C105.022 39.2446 104.909 38.9047 104.682 38.6613C104.455 38.4154 104.145 38.2925 103.749 38.2925C103.477 38.2925 103.233 38.3516 103.019 38.4697C102.807 38.5878 102.639 38.7601 102.516 38.9867C102.393 39.2133 102.332 39.4881 102.332 39.811Z" fill="#0F172A"/>
<path d="M112.344 37.5983V38.3214H109.466V37.5983H112.344ZM110.305 36.2678H111.158V41.561C111.158 41.802 111.193 41.9828 111.263 42.1033C111.335 42.2214 111.427 42.301 111.538 42.3419C111.651 42.3805 111.77 42.3998 111.896 42.3998C111.99 42.3998 112.067 42.395 112.127 42.3853C112.187 42.3733 112.236 42.3636 112.272 42.3564L112.445 43.1229C112.387 43.1446 112.307 43.1663 112.203 43.188C112.099 43.2121 111.968 43.2241 111.809 43.2241C111.568 43.2241 111.332 43.1723 111.1 43.0687C110.871 42.965 110.681 42.8071 110.529 42.595C110.38 42.3829 110.305 42.1154 110.305 41.7924V36.2678Z" fill="#0F172A"/>
<path d="M126.657 38.0611C126.578 37.8177 126.473 37.5995 126.343 37.4067C126.215 37.2115 126.062 37.0451 125.884 36.9078C125.708 36.7704 125.508 36.6655 125.283 36.5932C125.059 36.5209 124.813 36.4847 124.546 36.4847C124.107 36.4847 123.708 36.598 123.349 36.8246C122.99 37.0512 122.704 37.385 122.492 37.8261C122.28 38.2672 122.174 38.8083 122.174 39.4495C122.174 40.0906 122.281 40.6318 122.496 41.0729C122.71 41.514 123.001 41.8478 123.367 42.0744C123.734 42.301 124.146 42.4142 124.604 42.4142C125.028 42.4142 125.402 42.3239 125.725 42.1431C126.05 41.9599 126.303 41.702 126.484 41.3693C126.667 41.0343 126.759 40.6402 126.759 40.1871L127.033 40.2449H124.806V39.4495H127.626V40.2449C127.626 40.8547 127.496 41.385 127.236 41.8358C126.978 42.2865 126.621 42.636 126.166 42.8843C125.713 43.1301 125.192 43.2531 124.604 43.2531C123.948 43.2531 123.372 43.0988 122.876 42.7903C122.381 42.4817 121.996 42.043 121.719 41.4742C121.444 40.9054 121.306 40.2304 121.306 39.4495C121.306 38.8638 121.385 38.3371 121.541 37.8695C121.7 37.3995 121.925 36.9993 122.214 36.6691C122.503 36.3389 122.845 36.0858 123.241 35.9099C123.636 35.7339 124.071 35.6459 124.546 35.6459C124.936 35.6459 125.3 35.705 125.638 35.8231C125.978 35.9388 126.28 36.1039 126.545 36.3184C126.813 36.5305 127.036 36.7848 127.214 37.0813C127.393 37.3754 127.515 37.702 127.583 38.0611H126.657Z" fill="#0F172A"/>
<path d="M131.541 43.1518V37.5983H132.365V38.4371H132.423C132.524 38.1623 132.707 37.9394 132.973 37.7683C133.238 37.5971 133.537 37.5116 133.869 37.5116C133.932 37.5116 134.01 37.5128 134.104 37.5152C134.198 37.5176 134.269 37.5212 134.318 37.526V38.3937C134.289 38.3865 134.222 38.3757 134.119 38.3612C134.017 38.3443 133.91 38.3359 133.797 38.3359C133.527 38.3359 133.286 38.3925 133.074 38.5058C132.864 38.6167 132.698 38.771 132.575 38.9686C132.454 39.1639 132.394 39.3868 132.394 39.6375V43.1518H131.541Z" fill="#0F172A"/>
<path d="M139.911 43.2675C139.409 43.2675 138.969 43.1482 138.591 42.9096C138.215 42.6709 137.921 42.3371 137.709 41.9081C137.499 41.479 137.394 40.9777 137.394 40.404C137.394 39.8255 137.499 39.3205 137.709 38.8891C137.921 38.4576 138.215 38.1226 138.591 37.884C138.969 37.6453 139.409 37.526 139.911 37.526C140.412 37.526 140.851 37.6453 141.227 37.884C141.605 38.1226 141.899 38.4576 142.109 38.8891C142.321 39.3205 142.427 39.8255 142.427 40.404C142.427 40.9777 142.321 41.479 142.109 41.9081C141.899 42.3371 141.605 42.6709 141.227 42.9096C140.851 43.1482 140.412 43.2675 139.911 43.2675ZM139.911 42.501C140.291 42.501 140.605 42.4034 140.851 42.2082C141.096 42.0129 141.278 41.7562 141.397 41.438C141.515 41.1199 141.574 40.7752 141.574 40.404C141.574 40.0328 141.515 39.6869 141.397 39.3663C141.278 39.0458 141.096 38.7866 140.851 38.589C140.605 38.3913 140.291 38.2925 139.911 38.2925C139.53 38.2925 139.216 38.3913 138.97 38.589C138.725 38.7866 138.543 39.0458 138.425 39.3663C138.306 39.6869 138.247 40.0328 138.247 40.404C138.247 40.7752 138.306 41.1199 138.425 41.438C138.543 41.7562 138.725 42.0129 138.97 42.2082C139.216 42.4034 139.53 42.501 139.911 42.501Z" fill="#0F172A"/>
<path d="M149.724 40.8812V37.5983H150.577V43.1518H149.724V42.2118H149.666C149.536 42.4938 149.333 42.7336 149.058 42.9313C148.784 43.1265 148.437 43.2241 148.017 43.2241C147.67 43.2241 147.362 43.1482 147.092 42.9963C146.822 42.8421 146.61 42.6107 146.455 42.3022C146.301 41.9912 146.224 41.5995 146.224 41.1271V37.5983H147.077V41.0693C147.077 41.4742 147.19 41.7972 147.417 42.0382C147.646 42.2793 147.938 42.3998 148.292 42.3998C148.504 42.3998 148.72 42.3455 148.939 42.2371C149.161 42.1286 149.347 41.9623 149.496 41.7381C149.648 41.514 149.724 41.2283 149.724 40.8812Z" fill="#0F172A"/>
<path d="M154.634 45.2344V37.5983H155.459V38.4805H155.56C155.623 38.3841 155.709 38.2612 155.82 38.1117C155.933 37.9599 156.095 37.8249 156.305 37.7068C156.517 37.5863 156.804 37.526 157.165 37.526C157.633 37.526 158.045 37.6429 158.402 37.8767C158.758 38.1105 159.037 38.442 159.237 38.871C159.437 39.3 159.537 39.8062 159.537 40.3895C159.537 40.9777 159.437 41.4875 159.237 41.9189C159.037 42.348 158.76 42.6806 158.405 42.9168C158.051 43.1506 157.642 43.2675 157.18 43.2675C156.823 43.2675 156.537 43.2085 156.323 43.0904C156.108 42.9698 155.943 42.8336 155.827 42.6818C155.712 42.5275 155.623 42.3998 155.56 42.2985H155.488V45.2344H154.634ZM155.473 40.3751C155.473 40.7945 155.535 41.1645 155.657 41.485C155.78 41.8032 155.96 42.0527 156.196 42.2335C156.432 42.4118 156.722 42.501 157.064 42.501C157.421 42.501 157.718 42.407 157.957 42.219C158.198 42.0286 158.379 41.7731 158.499 41.4525C158.622 41.1295 158.684 40.7704 158.684 40.3751C158.684 39.9846 158.623 39.6327 158.503 39.3193C158.385 39.0036 158.205 38.7541 157.964 38.5709C157.726 38.3853 157.425 38.2925 157.064 38.2925C156.717 38.2925 156.425 38.3805 156.189 38.5564C155.953 38.73 155.774 38.9734 155.654 39.2868C155.533 39.5977 155.473 39.9605 155.473 40.3751Z" fill="#0F172A"/>
</mask>
<g mask="url(#mask0_540_2283)">
<rect x="37.5371" y="6" width="122" height="27" fill="white"/>
</g>
</svg>
