<svg width="160" height="40" viewBox="0 0 160 40" fill="none" xmlns="http://www.w3.org/2000/svg">
<path d="M16.969 23.0111L21.4941 18.4861H36.2005V26.4049H0V23.0111H16.969Z" fill="#6E47FF"/>
<path d="M27.1504 12.8298L30.5442 9.43595H36.2005V17.3548H0V12.8298H27.1504Z" fill="#6E47FF"/>
<path d="M0 1.51709H36.2005V8.30469H0V1.51709Z" fill="#6E47FF"/>
<path d="M6.7876 32.0613L11.3127 27.5362H36.2005V37.7176H0V32.0613H6.7876Z" fill="#6E47FF"/>
<path d="M59.2255 1.15698V25.8391H54.7181L43.9799 10.3043H43.7991V25.8391H38.5807V1.15698H43.1604L53.8142 16.6798H54.0311V1.15698H59.2255Z" fill="#0F172A"/>
<path d="M71.8046 26.2007C69.9325 26.2007 68.3136 25.803 66.9477 25.0076C65.5899 24.2041 64.5413 23.0873 63.8022 21.6572C63.063 20.219 62.6934 18.5518 62.6934 16.6556C62.6934 14.7434 63.063 13.0722 63.8022 11.6421C64.5413 10.2039 65.5899 9.08709 66.9477 8.29167C68.3136 7.48821 69.9325 7.08648 71.8046 7.08648C73.6766 7.08648 75.2916 7.48821 76.6494 8.29167C78.0153 9.08709 79.0678 10.2039 79.807 11.6421C80.5462 13.0722 80.9158 14.7434 80.9158 16.6556C80.9158 18.5518 80.5462 20.219 79.807 21.6572C79.0678 23.0873 78.0153 24.2041 76.6494 25.0076C75.2916 25.803 73.6766 26.2007 71.8046 26.2007ZM71.8287 22.2236C72.6804 22.2236 73.3914 21.9826 73.9619 21.5005C74.5323 21.0104 74.9622 20.3435 75.2514 19.4999C75.5487 18.6563 75.6973 17.6961 75.6973 16.6195C75.6973 15.5429 75.5487 14.5827 75.2514 13.7391C74.9622 12.8955 74.5323 12.2286 73.9619 11.7385C73.3914 11.2484 72.6804 11.0033 71.8287 11.0033C70.969 11.0033 70.2459 11.2484 69.6594 11.7385C69.0809 12.2286 68.643 12.8955 68.3457 13.7391C68.0565 14.5827 67.9118 15.5429 67.9118 16.6195C67.9118 17.6961 68.0565 18.6563 68.3457 19.4999C68.643 20.3435 69.0809 21.0104 69.6594 21.5005C70.2459 21.9826 70.969 22.2236 71.8287 22.2236Z" fill="#0F172A"/>
<path d="M84.2541 25.8391V7.32752H89.2316V10.5574H89.4244C89.7618 9.40847 90.3283 8.54074 91.1237 7.95422C91.9191 7.35966 92.8351 7.06238 93.8715 7.06238C94.1286 7.06238 94.4058 7.07845 94.7031 7.11059C95.0004 7.14273 95.2615 7.18692 95.4865 7.24316V11.7988C95.2454 11.7264 94.912 11.6622 94.4862 11.6059C94.0603 11.5497 93.6706 11.5216 93.3171 11.5216C92.5619 11.5216 91.887 11.6863 91.2924 12.0157C90.7059 12.3371 90.2399 12.787 89.8944 13.3655C89.5569 13.944 89.3882 14.6109 89.3882 15.3661V25.8391H84.2541Z" fill="#0F172A"/>
<path d="M109.024 7.32752V11.1841H97.5985V7.32752H109.024ZM100.214 25.8391V5.98977C100.214 4.64799 100.475 3.53521 100.997 2.65141C101.527 1.7676 102.251 1.10475 103.166 0.662851C104.082 0.22095 105.123 0 106.288 0C107.075 0 107.794 0.0602597 108.445 0.180779C109.104 0.301297 109.594 0.409764 109.916 0.506179L109 4.36277C108.799 4.29849 108.55 4.23823 108.252 4.18199C107.963 4.12575 107.666 4.09763 107.361 4.09763C106.605 4.09763 106.079 4.27439 105.782 4.62791C105.484 4.97339 105.336 5.45949 105.336 6.08618V25.8391H100.214Z" fill="#0F172A"/>
<path d="M119.861 26.2007C117.989 26.2007 116.37 25.803 115.004 25.0076C113.647 24.2041 112.598 23.0873 111.859 21.6572C111.12 20.219 110.75 18.5518 110.75 16.6556C110.75 14.7434 111.12 13.0722 111.859 11.6421C112.598 10.2039 113.647 9.08709 115.004 8.29167C116.37 7.48821 117.989 7.08648 119.861 7.08648C121.733 7.08648 123.348 7.48821 124.706 8.29167C126.072 9.08709 127.125 10.2039 127.864 11.6421C128.603 13.0722 128.972 14.7434 128.972 16.6556C128.972 18.5518 128.603 20.219 127.864 21.6572C127.125 23.0873 126.072 24.2041 124.706 25.0076C123.348 25.803 121.733 26.2007 119.861 26.2007ZM119.885 22.2236C120.737 22.2236 121.448 21.9826 122.019 21.5005C122.589 21.0104 123.019 20.3435 123.308 19.4999C123.605 18.6563 123.754 17.6961 123.754 16.6195C123.754 15.5429 123.605 14.5827 123.308 13.7391C123.019 12.8955 122.589 12.2286 122.019 11.7385C121.448 11.2484 120.737 11.0033 119.885 11.0033C119.026 11.0033 118.303 11.2484 117.716 11.7385C117.138 12.2286 116.7 12.8955 116.402 13.7391C116.113 14.5827 115.969 15.5429 115.969 16.6195C115.969 17.6961 116.113 18.6563 116.402 19.4999C116.7 20.3435 117.138 21.0104 117.716 21.5005C118.303 21.9826 119.026 22.2236 119.885 22.2236Z" fill="#0F172A"/>
<path d="M137.445 1.15698V25.8391H132.311V1.15698H137.445Z" fill="#0F172A"/>
<path d="M146.21 20.5122L146.222 14.3537H146.969L152.898 7.32752H158.792L150.825 16.6315H149.608L146.21 20.5122ZM141.558 25.8391V1.15698H146.692V25.8391H141.558ZM153.127 25.8391L147.68 17.7765L151.103 14.1489L159.141 25.8391H153.127Z" fill="#0F172A"/>
<path d="M39.36 29.7472V37.1518H38.4634V29.7472H39.36Z" fill="#0F172A"/>
<path d="M44.3899 33.811V37.1518H43.5366V31.5983H44.361V32.4661H44.4333C44.5634 32.184 44.7611 31.9575 45.0262 31.7863C45.2914 31.6128 45.6336 31.526 46.053 31.526C46.4291 31.526 46.7581 31.6031 47.0401 31.7574C47.3221 31.9093 47.5414 32.1407 47.6981 32.4516C47.8548 32.7601 47.9331 33.1506 47.9331 33.623V37.1518H47.0799V33.6809C47.0799 33.2446 46.9666 32.9047 46.74 32.6613C46.5134 32.4154 46.2025 32.2925 45.8072 32.2925C45.5348 32.2925 45.2914 32.3516 45.0768 32.4697C44.8647 32.5878 44.6972 32.7601 44.5743 32.9867C44.4513 33.2133 44.3899 33.4881 44.3899 33.811Z" fill="#0F172A"/>
<path d="M56.3291 31.5983L54.2754 37.1518H53.4077L51.3541 31.5983H52.2796L53.8126 36.0238H53.8705L55.4035 31.5983H56.3291Z" fill="#0F172A"/>
<path d="M62.0793 37.2675C61.5442 37.2675 61.0826 37.1494 60.6945 36.9132C60.3089 36.6746 60.0112 36.3419 59.8015 35.9153C59.5942 35.4862 59.4906 34.9873 59.4906 34.4185C59.4906 33.8496 59.5942 33.3483 59.8015 32.9144C60.0112 32.4781 60.3029 32.1382 60.6765 31.8948C61.0525 31.6489 61.4912 31.526 61.9925 31.526C62.2818 31.526 62.5674 31.5742 62.8494 31.6706C63.1314 31.767 63.3881 31.9237 63.6195 32.1407C63.8509 32.3552 64.0353 32.6396 64.1727 32.9939C64.3101 33.3483 64.3788 33.7845 64.3788 34.3028V34.6643H60.098V33.9267H63.5111C63.5111 33.6134 63.4484 33.3338 63.323 33.0879C63.2001 32.8421 63.0242 32.648 62.7952 32.5058C62.5686 32.3636 62.301 32.2925 61.9925 32.2925C61.6527 32.2925 61.3586 32.3769 61.1103 32.5456C60.8645 32.7119 60.6753 32.9288 60.5427 33.1964C60.4101 33.464 60.3438 33.7508 60.3438 34.0569V34.5486C60.3438 34.968 60.4161 35.3235 60.5608 35.6152C60.7078 35.9044 60.9115 36.125 61.1718 36.2769C61.4321 36.4263 61.7346 36.501 62.0793 36.501C62.3035 36.501 62.5059 36.4697 62.6867 36.407C62.8699 36.3419 63.0278 36.2455 63.1603 36.1178C63.2929 35.9876 63.3954 35.8261 63.4677 35.6333L64.292 35.8647C64.2052 36.1443 64.0594 36.3901 63.8545 36.6022C63.6497 36.812 63.3966 36.9759 63.0953 37.094C62.794 37.2097 62.4553 37.2675 62.0793 37.2675Z" fill="#0F172A"/>
<path d="M72.1049 32.8421L71.3384 33.059C71.2902 32.9313 71.2191 32.8071 71.1251 32.6866C71.0335 32.5637 70.9082 32.4624 70.7491 32.3829C70.59 32.3034 70.3863 32.2636 70.1381 32.2636C69.7982 32.2636 69.515 32.3419 69.2884 32.4986C69.0643 32.6529 68.9522 32.8493 68.9522 33.0879C68.9522 33.3 69.0293 33.4676 69.1836 33.5905C69.3378 33.7134 69.5789 33.8159 69.9067 33.8978L70.731 34.1003C71.2276 34.2208 71.5975 34.4052 71.841 34.6535C72.0844 34.8993 72.2062 35.2163 72.2062 35.6044C72.2062 35.9225 72.1146 36.207 71.9314 36.4576C71.7506 36.7083 71.4975 36.906 71.1721 37.0506C70.8467 37.1952 70.4683 37.2675 70.0368 37.2675C69.4704 37.2675 69.0016 37.1446 68.6304 36.8987C68.2592 36.6529 68.0242 36.2937 67.9254 35.8213L68.7352 35.6188C68.8124 35.9177 68.9582 36.1419 69.1727 36.2913C69.3897 36.4408 69.6729 36.5155 70.0224 36.5155C70.4201 36.5155 70.7358 36.4311 70.9696 36.2624C71.2059 36.0913 71.324 35.8864 71.324 35.6477C71.324 35.4549 71.2565 35.2934 71.1215 35.1633C70.9865 35.0307 70.7792 34.9319 70.4996 34.8668L69.574 34.6499C69.0655 34.5293 68.6919 34.3425 68.4532 34.0894C68.217 33.8339 68.0989 33.5146 68.0989 33.1313C68.0989 32.818 68.1869 32.5408 68.3628 32.2997C68.5412 32.0587 68.7834 31.8695 69.0896 31.7321C69.3981 31.5947 69.7476 31.526 70.1381 31.526C70.6876 31.526 71.1191 31.6465 71.4324 31.8876C71.7482 32.1286 71.9724 32.4468 72.1049 32.8421Z" fill="#0F172A"/>
<path d="M78.4002 31.5983V32.3214H75.5222V31.5983H78.4002ZM76.3611 30.2678H77.2143V35.561C77.2143 35.802 77.2493 35.9828 77.3192 36.1033C77.3915 36.2214 77.4831 36.301 77.594 36.3419C77.7072 36.3805 77.8266 36.3998 77.9519 36.3998C78.0459 36.3998 78.123 36.395 78.1833 36.3853C78.2435 36.3733 78.2918 36.3636 78.3279 36.3564L78.5015 37.1229C78.4436 37.1446 78.3629 37.1663 78.2592 37.188C78.1556 37.2121 78.0242 37.2241 77.8651 37.2241C77.6241 37.2241 77.3879 37.1723 77.1565 37.0687C76.9275 36.965 76.7371 36.8071 76.5852 36.595C76.4358 36.3829 76.3611 36.1154 76.3611 35.7924V30.2678Z" fill="#0F172A"/>
<path d="M82.1782 37.1518V31.5983H83.0025V32.4661H83.0748C83.1905 32.1696 83.3773 31.9394 83.6353 31.7755C83.8932 31.6092 84.2029 31.526 84.5644 31.526C84.9308 31.526 85.2357 31.6092 85.4792 31.7755C85.725 31.9394 85.9167 32.1696 86.0541 32.4661H86.1119C86.2541 32.1792 86.4674 31.9514 86.7519 31.7827C87.0363 31.6116 87.3773 31.526 87.7751 31.526C88.2716 31.526 88.6777 31.6815 88.9935 31.9924C89.3093 32.3009 89.4671 32.7818 89.4671 33.435V37.1518H88.6139V33.435C88.6139 33.0253 88.5018 32.7324 88.2776 32.5564C88.0535 32.3805 87.7895 32.2925 87.4858 32.2925C87.0953 32.2925 86.7928 32.4106 86.5783 32.6468C86.3638 32.8806 86.2565 33.1771 86.2565 33.5363V37.1518H85.3888V33.3483C85.3888 33.0325 85.2864 32.7782 85.0815 32.5854C84.8766 32.3901 84.6127 32.2925 84.2897 32.2925C84.0679 32.2925 83.8606 32.3516 83.6678 32.4697C83.4774 32.5878 83.3231 32.7517 83.205 32.9614C83.0893 33.1687 83.0315 33.4085 83.0315 33.6809V37.1518H82.1782Z" fill="#0F172A"/>
<path d="M95.8501 37.2675C95.315 37.2675 94.8534 37.1494 94.4653 36.9132C94.0797 36.6746 93.782 36.3419 93.5723 35.9153C93.365 35.4862 93.2614 34.9873 93.2614 34.4185C93.2614 33.8496 93.365 33.3483 93.5723 32.9144C93.782 32.4781 94.0737 32.1382 94.4473 31.8948C94.8233 31.6489 95.262 31.526 95.7633 31.526C96.0526 31.526 96.3382 31.5742 96.6202 31.6706C96.9022 31.767 97.1589 31.9237 97.3903 32.1407C97.6217 32.3552 97.8061 32.6396 97.9435 32.9939C98.0809 33.3483 98.1496 33.7845 98.1496 34.3028V34.6643H93.8688V33.9267H97.2819C97.2819 33.6134 97.2192 33.3338 97.0938 33.0879C96.9709 32.8421 96.795 32.648 96.566 32.5058C96.3394 32.3636 96.0719 32.2925 95.7633 32.2925C95.4235 32.2925 95.1294 32.3769 94.8811 32.5456C94.6353 32.7119 94.4461 32.9288 94.3135 33.1964C94.1809 33.464 94.1146 33.7508 94.1146 34.0569V34.5486C94.1146 34.968 94.1869 35.3235 94.3316 35.6152C94.4786 35.9044 94.6823 36.125 94.9426 36.2769C95.2029 36.4263 95.5054 36.501 95.8501 36.501C96.0743 36.501 96.2767 36.4697 96.4575 36.407C96.6407 36.3419 96.7986 36.2455 96.9311 36.1178C97.0637 35.9876 97.1662 35.8261 97.2385 35.6333L98.0628 35.8647C97.976 36.1443 97.8302 36.3901 97.6253 36.6022C97.4205 36.812 97.1674 36.9759 96.8661 37.094C96.5648 37.2097 96.2261 37.2675 95.8501 37.2675Z" fill="#0F172A"/>
<path d="M102.795 33.811V37.1518H101.942V31.5983H102.766V32.4661H102.839C102.969 32.184 103.166 31.9575 103.432 31.7863C103.697 31.6128 104.039 31.526 104.458 31.526C104.834 31.526 105.163 31.6031 105.445 31.7574C105.728 31.9093 105.947 32.1407 106.104 32.4516C106.26 32.7601 106.339 33.1506 106.339 33.623V37.1518H105.485V33.6809C105.485 33.2446 105.372 32.9047 105.145 32.6613C104.919 32.4154 104.608 32.2925 104.213 32.2925C103.94 32.2925 103.697 32.3516 103.482 32.4697C103.27 32.5878 103.103 32.7601 102.98 32.9867C102.857 33.2133 102.795 33.4881 102.795 33.811Z" fill="#0F172A"/>
<path d="M112.807 31.5983V32.3214H109.929V31.5983H112.807ZM110.768 30.2678H111.621V35.561C111.621 35.802 111.656 35.9828 111.726 36.1033C111.799 36.2214 111.89 36.301 112.001 36.3419C112.114 36.3805 112.234 36.3998 112.359 36.3998C112.453 36.3998 112.53 36.395 112.59 36.3853C112.651 36.3733 112.699 36.3636 112.735 36.3564L112.909 37.1229C112.851 37.1446 112.77 37.1663 112.666 37.188C112.563 37.2121 112.431 37.2241 112.272 37.2241C112.031 37.2241 111.795 37.1723 111.564 37.0687C111.335 36.965 111.144 36.8071 110.992 36.595C110.843 36.3829 110.768 36.1154 110.768 35.7924V30.2678Z" fill="#0F172A"/>
<path d="M127.121 32.0611C127.041 31.8177 126.936 31.5995 126.806 31.4067C126.678 31.2115 126.525 31.0451 126.347 30.9078C126.171 30.7704 125.971 30.6655 125.747 30.5932C125.523 30.5209 125.277 30.4847 125.009 30.4847C124.571 30.4847 124.172 30.598 123.813 30.8246C123.453 31.0512 123.168 31.385 122.956 31.8261C122.744 32.2672 122.637 32.8083 122.637 33.4495C122.637 34.0906 122.745 34.6318 122.959 35.0729C123.174 35.514 123.464 35.8478 123.831 36.0744C124.197 36.301 124.609 36.4142 125.067 36.4142C125.491 36.4142 125.865 36.3239 126.188 36.1431C126.513 35.9599 126.766 35.702 126.947 35.3693C127.13 35.0343 127.222 34.6402 127.222 34.1871L127.497 34.2449H125.27V33.4495H128.09V34.2449C128.09 34.8547 127.96 35.385 127.699 35.8358C127.441 36.2865 127.085 36.636 126.629 36.8843C126.176 37.1301 125.655 37.2531 125.067 37.2531C124.411 37.2531 123.835 37.0988 123.339 36.7903C122.845 36.4817 122.459 36.043 122.182 35.4742C121.907 34.9053 121.77 34.2304 121.77 33.4495C121.77 32.8638 121.848 32.3371 122.005 31.8695C122.164 31.3995 122.388 30.9993 122.677 30.6691C122.966 30.3389 123.309 30.0858 123.704 29.9099C124.099 29.7339 124.534 29.6459 125.009 29.6459C125.4 29.6459 125.764 29.705 126.101 29.8231C126.441 29.9388 126.744 30.1039 127.009 30.3184C127.276 30.5305 127.499 30.7848 127.678 31.0813C127.856 31.3754 127.979 31.702 128.046 32.0611H127.121Z" fill="#0F172A"/>
<path d="M132.004 37.1518V31.5983H132.829V32.4371H132.886C132.988 32.1623 133.171 31.9394 133.436 31.7683C133.701 31.5971 134 31.5116 134.333 31.5116C134.395 31.5116 134.474 31.5128 134.568 31.5152C134.662 31.5176 134.733 31.5212 134.781 31.526V32.3937C134.752 32.3865 134.686 32.3757 134.582 32.3612C134.481 32.3443 134.374 32.3359 134.26 32.3359C133.99 32.3359 133.749 32.3925 133.537 32.5058C133.327 32.6167 133.161 32.771 133.038 32.9686C132.918 33.1639 132.857 33.3868 132.857 33.6375V37.1518H132.004Z" fill="#0F172A"/>
<path d="M140.374 37.2675C139.873 37.2675 139.433 37.1482 139.054 36.9096C138.678 36.6709 138.384 36.3371 138.172 35.9081C137.962 35.479 137.857 34.9777 137.857 34.404C137.857 33.8255 137.962 33.3205 138.172 32.8891C138.384 32.4576 138.678 32.1226 139.054 31.884C139.433 31.6453 139.873 31.526 140.374 31.526C140.875 31.526 141.314 31.6453 141.69 31.884C142.068 32.1226 142.362 32.4576 142.572 32.8891C142.784 33.3205 142.89 33.8255 142.89 34.404C142.89 34.9777 142.784 35.479 142.572 35.9081C142.362 36.3371 142.068 36.6709 141.69 36.9096C141.314 37.1482 140.875 37.2675 140.374 37.2675ZM140.374 36.501C140.755 36.501 141.068 36.4034 141.314 36.2082C141.56 36.0129 141.742 35.7562 141.86 35.438C141.978 35.1199 142.037 34.7752 142.037 34.404C142.037 34.0328 141.978 33.6869 141.86 33.3663C141.742 33.0457 141.56 32.7866 141.314 32.589C141.068 32.3913 140.755 32.2925 140.374 32.2925C139.993 32.2925 139.68 32.3913 139.434 32.589C139.188 32.7866 139.006 33.0457 138.888 33.3663C138.77 33.6869 138.711 34.0328 138.711 34.404C138.711 34.7752 138.77 35.1199 138.888 35.438C139.006 35.7562 139.188 36.0129 139.434 36.2082C139.68 36.4034 139.993 36.501 140.374 36.501Z" fill="#0F172A"/>
<path d="M150.187 34.8812V31.5983H151.04V37.1518H150.187V36.2118H150.129C149.999 36.4938 149.797 36.7336 149.522 36.9313C149.247 37.1265 148.9 37.2241 148.481 37.2241C148.133 37.2241 147.825 37.1482 147.555 36.9963C147.285 36.8421 147.073 36.6107 146.919 36.3022C146.764 35.9912 146.687 35.5995 146.687 35.1271V31.5983H147.541V35.0693C147.541 35.4742 147.654 35.7972 147.88 36.0382C148.109 36.2793 148.401 36.3998 148.755 36.3998C148.967 36.3998 149.183 36.3455 149.403 36.2371C149.624 36.1286 149.81 35.9623 149.959 35.7381C150.111 35.514 150.187 35.2283 150.187 34.8812Z" fill="#0F172A"/>
<path d="M155.098 39.2344V31.5983H155.922V32.4805H156.023C156.086 32.3841 156.173 32.2612 156.284 32.1117C156.397 31.9599 156.558 31.8249 156.768 31.7068C156.98 31.5863 157.267 31.526 157.629 31.526C158.096 31.526 158.508 31.6429 158.865 31.8767C159.222 32.1105 159.5 32.442 159.7 32.871C159.9 33.3 160 33.8062 160 34.3895C160 34.9777 159.9 35.4875 159.7 35.9189C159.5 36.348 159.223 36.6806 158.869 36.9168C158.514 37.1506 158.106 37.2675 157.643 37.2675C157.286 37.2675 157.001 37.2085 156.786 37.0904C156.572 36.9698 156.406 36.8336 156.291 36.6818C156.175 36.5275 156.086 36.3998 156.023 36.2985H155.951V39.2344H155.098ZM155.936 34.3751C155.936 34.7945 155.998 35.1645 156.121 35.485C156.244 35.8032 156.423 36.0527 156.66 36.2335C156.896 36.4118 157.185 36.501 157.527 36.501C157.884 36.501 158.182 36.407 158.42 36.219C158.661 36.0286 158.842 35.7731 158.963 35.4525C159.086 35.1295 159.147 34.7704 159.147 34.3751C159.147 33.9846 159.087 33.6327 158.966 33.3193C158.848 33.0036 158.669 32.7541 158.428 32.5709C158.189 32.3853 157.889 32.2925 157.527 32.2925C157.18 32.2925 156.889 32.3805 156.652 32.5564C156.416 32.73 156.238 32.9734 156.117 33.2868C155.997 33.5977 155.936 33.9605 155.936 34.3751Z" fill="#0F172A"/>
</svg>
