<svg width="142" height="34" viewBox="0 0 142 34" fill="none" xmlns="http://www.w3.org/2000/svg">
<path d="M15.06 19.012L19.076 14.996H32.128V22.024H0V19.012H15.06Z" fill="white"/>
<path d="M24.096 9.97602L27.108 6.96403H32.128V13.992H0V9.97602H24.096Z" fill="white"/>
<path d="M0 -0.0639648H32.128V5.96003H0V-0.0639648Z" fill="white"/>
<path d="M6.02399 27.044L10.04 23.028H32.128V32.064H0V27.044H6.02399Z" fill="white"/>
<path d="M52.5621 -0.383338V21.5221H48.5618L39.0317 7.73493H38.8712V21.5221H34.2398V-0.383338H38.3043L47.7596 13.3931H47.9521V-0.383338H52.5621Z" fill="white"/>
<path d="M63.7261 21.843C62.0646 21.843 60.6278 21.49 59.4156 20.7841C58.2105 20.071 57.2799 19.0798 56.6239 17.8106C55.9679 16.5342 55.6399 15.0546 55.6399 13.3717C55.6399 11.6746 55.9679 10.1915 56.6239 8.92219C57.2799 7.6458 58.2105 6.65464 59.4156 5.9487C60.6278 5.23563 62.0646 4.8791 63.7261 4.8791C65.3875 4.8791 66.8208 5.23563 68.0259 5.9487C69.2381 6.65464 70.1722 7.6458 70.8282 8.92219C71.4842 10.1915 71.8123 11.6746 71.8123 13.3717C71.8123 15.0546 71.4842 16.5342 70.8282 17.8106C70.1722 19.0798 69.2381 20.071 68.0259 20.7841C66.8208 21.49 65.3875 21.843 63.7261 21.843ZM63.7475 18.3133C64.5033 18.3133 65.1344 18.0994 65.6407 17.6715C66.1469 17.2366 66.5284 16.6447 66.7851 15.896C67.049 15.1473 67.1809 14.2952 67.1809 13.3396C67.1809 12.3841 67.049 11.532 66.7851 10.7833C66.5284 10.0346 66.1469 9.44273 65.6407 9.00776C65.1344 8.57279 64.5033 8.3553 63.7475 8.3553C62.9845 8.3553 62.3427 8.57279 61.8222 9.00776C61.3088 9.44273 60.9201 10.0346 60.6563 10.7833C60.3996 11.532 60.2713 12.3841 60.2713 13.3396C60.2713 14.2952 60.3996 15.1473 60.6563 15.896C60.9201 16.6447 61.3088 17.2366 61.8222 17.6715C62.3427 18.0994 62.9845 18.3133 63.7475 18.3133Z" fill="white"/>
<path d="M74.775 21.5221V5.09302H79.1925V7.95955H79.3636C79.6631 6.93986 80.1658 6.16975 80.8718 5.64921C81.5777 5.12154 82.3906 4.85771 83.3105 4.85771C83.5386 4.85771 83.7846 4.87197 84.0485 4.90049C84.3123 4.92901 84.5441 4.96823 84.7437 5.01815V9.06124C84.5298 8.99706 84.2339 8.94002 83.856 8.8901C83.478 8.84019 83.1322 8.81523 82.8184 8.81523C82.1482 8.81523 81.5492 8.96141 81.0215 9.25377C80.501 9.53899 80.0874 9.93831 79.7808 10.4517C79.4813 10.9651 79.3315 11.557 79.3315 12.2273V21.5221H74.775Z" fill="white"/>
<path d="M96.758 5.09302V8.51574H86.6182V5.09302H96.758ZM88.9392 21.5221V3.90576C88.9392 2.71494 89.171 1.72734 89.6345 0.942966C90.1051 0.158592 90.7469 -0.429689 91.5598 -0.821876C92.3726 -1.21406 93.2961 -1.41016 94.33 -1.41016C95.0288 -1.41016 95.667 -1.35668 96.2446 -1.24971C96.8293 -1.14276 97.2643 -1.04649 97.5495 -0.960923L96.7366 2.4618C96.5584 2.40476 96.3373 2.35127 96.0735 2.30136C95.8168 2.25145 95.5529 2.22649 95.282 2.22649C94.6117 2.22649 94.1446 2.38336 93.8808 2.69711C93.617 3.00373 93.485 3.43514 93.485 3.99133V21.5221H88.9392Z" fill="white"/>
<path d="M106.376 21.843C104.715 21.843 103.278 21.49 102.066 20.7841C100.861 20.071 99.9303 19.0798 99.2742 17.8106C98.6182 16.5342 98.2902 15.0546 98.2902 13.3717C98.2902 11.6746 98.6182 10.1915 99.2742 8.92219C99.9303 7.6458 100.861 6.65464 102.066 5.9487C103.278 5.23563 104.715 4.8791 106.376 4.8791C108.038 4.8791 109.471 5.23563 110.676 5.9487C111.888 6.65464 112.823 7.6458 113.479 8.92219C114.135 10.1915 114.463 11.6746 114.463 13.3717C114.463 15.0546 114.135 16.5342 113.479 17.8106C112.823 19.0798 111.888 20.071 110.676 20.7841C109.471 21.49 108.038 21.843 106.376 21.843ZM106.398 18.3133C107.154 18.3133 107.785 18.0994 108.291 17.6715C108.797 17.2366 109.179 16.6447 109.435 15.896C109.699 15.1473 109.831 14.2952 109.831 13.3396C109.831 12.3841 109.699 11.532 109.435 10.7833C109.179 10.0346 108.797 9.44273 108.291 9.00776C107.785 8.57279 107.154 8.3553 106.398 8.3553C105.635 8.3553 104.993 8.57279 104.473 9.00776C103.959 9.44273 103.57 10.0346 103.307 10.7833C103.05 11.532 102.922 12.3841 102.922 13.3396C102.922 14.2952 103.05 15.1473 103.307 15.896C103.57 16.6447 103.959 17.2366 104.473 17.6715C104.993 18.0994 105.635 18.3133 106.398 18.3133Z" fill="white"/>
<path d="M121.982 -0.383338V21.5221H117.425V-0.383338H121.982Z" fill="white"/>
<path d="M129.761 16.7945L129.771 11.3288H130.434L135.697 5.09302H140.927L133.857 13.3503H132.777L129.761 16.7945ZM125.632 21.5221V-0.383338H130.188V21.5221H125.632ZM135.9 21.5221L131.065 14.3665L134.103 11.147L141.237 21.5221H135.9Z" fill="white"/>
<path d="M34.9315 24.9905V31.5621H34.1357V24.9905H34.9315Z" fill="white"/>
<path d="M39.3955 28.5971V31.5621H38.6382V26.6334H39.3698V27.4035H39.434C39.5495 27.1532 39.725 26.9521 39.9603 26.8002C40.1956 26.6462 40.4993 26.5692 40.8716 26.5692C41.2053 26.5692 41.4973 26.6376 41.7476 26.7745C41.9979 26.9093 42.1925 27.1147 42.3316 27.3906C42.4706 27.6645 42.5401 28.011 42.5401 28.4303V31.5621H41.7829V28.4816C41.7829 28.0944 41.6823 27.7928 41.4812 27.5767C41.2802 27.3585 41.0042 27.2494 40.6534 27.2494C40.4116 27.2494 40.1956 27.3019 40.0052 27.4067C39.8169 27.5115 39.6683 27.6645 39.5592 27.8655C39.4501 28.0666 39.3955 28.3105 39.3955 28.5971Z" fill="white"/>
<path d="M49.9915 26.6334L48.1689 31.5621H47.3988L45.5762 26.6334H46.3977L47.7582 30.5609H47.8095L49.1701 26.6334H49.9915Z" fill="white"/>
<path d="M55.0949 31.6648C54.62 31.6648 54.2103 31.5599 53.8659 31.3503C53.5236 31.1385 53.2594 30.8433 53.0733 30.4647C52.8894 30.0839 52.7974 29.6411 52.7974 29.1362C52.7974 28.6314 52.8894 28.1864 53.0733 27.8014C53.2594 27.4142 53.5183 27.1125 53.8499 26.8965C54.1836 26.6783 54.5729 26.5692 55.0179 26.5692C55.2746 26.5692 55.5281 26.612 55.7783 26.6975C56.0286 26.7831 56.2565 26.9222 56.4618 27.1147C56.6672 27.3051 56.8308 27.5575 56.9528 27.872C57.0747 28.1864 57.1357 28.5736 57.1357 29.0335V29.3544H53.3364V28.6998H56.3656C56.3656 28.4217 56.3099 28.1736 56.1987 27.9554C56.0896 27.7372 55.9334 27.565 55.7302 27.4388C55.5291 27.3126 55.2917 27.2494 55.0179 27.2494C54.7162 27.2494 54.4552 27.3243 54.2349 27.4741C54.0167 27.6217 53.8488 27.8142 53.7311 28.0517C53.6135 28.2891 53.5546 28.5437 53.5546 28.8153V29.2517C53.5546 29.624 53.6188 29.9395 53.7472 30.1983C53.8777 30.455 54.0584 30.6508 54.2895 30.7856C54.5205 30.9182 54.789 30.9845 55.0949 30.9845C55.2938 30.9845 55.4735 30.9567 55.6339 30.9011C55.7965 30.8433 55.9366 30.7577 56.0543 30.6444C56.172 30.5288 56.2629 30.3855 56.327 30.2144L57.0587 30.4197C56.9816 30.6679 56.8522 30.8861 56.6704 31.0743C56.4886 31.2605 56.2639 31.4059 55.9965 31.5107C55.7291 31.6134 55.4286 31.6648 55.0949 31.6648Z" fill="white"/>
<path d="M63.9926 27.7372L63.3124 27.9297C63.2696 27.8163 63.2065 27.7062 63.123 27.5992C63.0417 27.4901 62.9305 27.4003 62.7893 27.3297C62.6481 27.2591 62.4674 27.2238 62.247 27.2238C61.9454 27.2238 61.694 27.2933 61.493 27.4324C61.294 27.5693 61.1945 27.7436 61.1945 27.9554C61.1945 28.1436 61.263 28.2923 61.3999 28.4014C61.5368 28.5105 61.7507 28.6014 62.0417 28.6742L62.7733 28.8539C63.2139 28.9608 63.5423 29.1245 63.7584 29.3448C63.9744 29.563 64.0825 29.8443 64.0825 30.1887C64.0825 30.4711 64.0012 30.7235 63.8386 30.946C63.6782 31.1685 63.4535 31.3439 63.1647 31.4722C62.876 31.6006 62.5401 31.6648 62.1572 31.6648C61.6545 31.6648 61.2384 31.5557 60.909 31.3375C60.5795 31.1193 60.3709 30.8005 60.2832 30.3812L61.002 30.2015C61.0705 30.4668 61.1999 30.6658 61.3903 30.7984C61.5828 30.931 61.8342 30.9973 62.1443 30.9973C62.4973 30.9973 62.7776 30.9225 62.9851 30.7727C63.1947 30.6208 63.2995 30.439 63.2995 30.2272C63.2995 30.0561 63.2396 29.9128 63.1198 29.7972C63 29.6796 62.8161 29.5919 62.5679 29.5341L61.7465 29.3416C61.2951 29.2346 60.9635 29.0688 60.7517 28.8442C60.5421 28.6175 60.4373 28.334 60.4373 27.9939C60.4373 27.7158 60.5153 27.4698 60.6715 27.2559C60.8298 27.0419 61.0448 26.874 61.3165 26.7521C61.5903 26.6301 61.9005 26.5692 62.247 26.5692C62.7348 26.5692 63.1177 26.6761 63.3958 26.8901C63.676 27.104 63.875 27.3864 63.9926 27.7372Z" fill="white"/>
<path d="M69.5797 26.6334V27.2751H67.0255V26.6334H69.5797ZM67.7699 25.4525H68.5272V30.1502C68.5272 30.3641 68.5582 30.5246 68.6203 30.6315C68.6844 30.7363 68.7657 30.8069 68.8641 30.8433C68.9647 30.8775 69.0706 30.8946 69.1818 30.8946C69.2652 30.8946 69.3337 30.8904 69.3872 30.8818C69.4406 30.8711 69.4834 30.8626 69.5155 30.8561L69.6695 31.5364C69.6182 31.5557 69.5465 31.5749 69.4545 31.5942C69.3626 31.6156 69.246 31.6263 69.1048 31.6263C68.8909 31.6263 68.6812 31.5803 68.4759 31.4883C68.2726 31.3963 68.1036 31.2562 67.9689 31.0679C67.8362 30.8797 67.7699 30.6422 67.7699 30.3556V25.4525Z" fill="white"/>
<path d="M72.9326 31.5621V26.6334H73.6642V27.4035H73.7284C73.8311 27.1404 73.9969 26.9361 74.2258 26.7906C74.4547 26.643 74.7296 26.5692 75.0504 26.5692C75.3756 26.5692 75.6462 26.643 75.8623 26.7906C76.0805 26.9361 76.2505 27.1404 76.3725 27.4035H76.4238C76.55 27.1489 76.7393 26.9468 76.9918 26.797C77.2442 26.6451 77.5469 26.5692 77.8999 26.5692C78.3405 26.5692 78.701 26.7072 78.9812 26.9831C79.2615 27.2569 79.4016 27.6837 79.4016 28.2634V31.5621H78.6443V28.2634C78.6443 27.8998 78.5448 27.6399 78.3459 27.4837C78.1469 27.3275 77.9127 27.2494 77.6432 27.2494C77.2966 27.2494 77.0281 27.3543 76.8377 27.5639C76.6474 27.7714 76.5522 28.0345 76.5522 28.3533V31.5621H75.782V28.1864C75.782 27.9062 75.6911 27.6805 75.5093 27.5094C75.3275 27.3361 75.0932 27.2494 74.8066 27.2494C74.6098 27.2494 74.4258 27.3019 74.2547 27.4067C74.0857 27.5115 73.9487 27.657 73.8439 27.8431C73.7412 28.027 73.6899 28.2399 73.6899 28.4816V31.5621H72.9326Z" fill="white"/>
<path d="M85.0665 31.6648C84.5916 31.6648 84.1819 31.5599 83.8375 31.3503C83.4952 31.1385 83.231 30.8433 83.0449 30.4647C82.8609 30.0839 82.769 29.6411 82.769 29.1362C82.769 28.6314 82.8609 28.1864 83.0449 27.8014C83.231 27.4142 83.4899 27.1125 83.8214 26.8965C84.1552 26.6783 84.5445 26.5692 84.9894 26.5692C85.2461 26.5692 85.4996 26.612 85.7499 26.6975C86.0002 26.7831 86.228 26.9222 86.4334 27.1147C86.6388 27.3051 86.8024 27.5575 86.9244 27.872C87.0463 28.1864 87.1073 28.5736 87.1073 29.0335V29.3544H83.308V28.6998H86.3371C86.3371 28.4217 86.2815 28.1736 86.1703 27.9554C86.0612 27.7372 85.905 27.565 85.7018 27.4388C85.5007 27.3126 85.2633 27.2494 84.9894 27.2494C84.6878 27.2494 84.4268 27.3243 84.2065 27.4741C83.9883 27.6217 83.8204 27.8142 83.7027 28.0517C83.5851 28.2891 83.5262 28.5437 83.5262 28.8153V29.2517C83.5262 29.624 83.5904 29.9395 83.7188 30.1983C83.8493 30.455 84.03 30.6508 84.261 30.7856C84.4921 30.9182 84.7606 30.9845 85.0665 30.9845C85.2654 30.9845 85.4451 30.9567 85.6055 30.9011C85.7681 30.8433 85.9082 30.7577 86.0259 30.6444C86.1435 30.5288 86.2345 30.3855 86.2986 30.2144L87.0302 30.4197C86.9532 30.6679 86.8238 30.8861 86.642 31.0743C86.4601 31.2605 86.2355 31.4059 85.9681 31.5107C85.7007 31.6134 85.4002 31.6648 85.0665 31.6648Z" fill="white"/>
<path d="M91.2303 28.5971V31.5621H90.473V26.6334H91.2046V27.4035H91.2688C91.3843 27.1532 91.5597 26.9521 91.7951 26.8002C92.0304 26.6462 92.3341 26.5692 92.7064 26.5692C93.0401 26.5692 93.3321 26.6376 93.5824 26.7745C93.8326 26.9093 94.0273 27.1147 94.1664 27.3906C94.3054 27.6645 94.3749 28.011 94.3749 28.4303V31.5621H93.6177V28.4816C93.6177 28.0944 93.5171 27.7928 93.316 27.5767C93.1149 27.3585 92.839 27.2494 92.4882 27.2494C92.2464 27.2494 92.0304 27.3019 91.84 27.4067C91.6517 27.5115 91.5031 27.6645 91.394 27.8655C91.2849 28.0666 91.2303 28.3105 91.2303 28.5971Z" fill="white"/>
<path d="M100.116 26.6334V27.2751H97.5618V26.6334H100.116ZM98.3063 25.4525H99.0635V30.1502C99.0635 30.3641 99.0946 30.5246 99.1566 30.6315C99.2208 30.7363 99.3021 30.8069 99.4005 30.8433C99.501 30.8775 99.6069 30.8946 99.7181 30.8946C99.8016 30.8946 99.87 30.8904 99.9235 30.8818C99.977 30.8711 100.02 30.8626 100.052 30.8561L100.206 31.5364C100.155 31.5557 100.083 31.5749 99.9909 31.5942C99.8989 31.6156 99.7823 31.6263 99.6411 31.6263C99.4272 31.6263 99.2176 31.5803 99.0122 31.4883C98.809 31.3963 98.64 31.2562 98.5052 31.0679C98.3726 30.8797 98.3063 30.6422 98.3063 30.3556V25.4525Z" fill="white"/>
<path d="M112.819 27.0441C112.749 26.828 112.656 26.6344 112.54 26.4633C112.427 26.29 112.291 26.1424 112.132 26.0205C111.976 25.8985 111.799 25.8055 111.6 25.7413C111.401 25.6771 111.183 25.645 110.945 25.645C110.556 25.645 110.202 25.7456 109.883 25.9467C109.564 26.1478 109.311 26.444 109.123 26.8355C108.934 27.227 108.84 27.7072 108.84 28.2763C108.84 28.8453 108.935 29.3255 109.126 29.717C109.316 30.1085 109.574 30.4048 109.899 30.6059C110.224 30.8069 110.59 30.9075 110.997 30.9075C111.373 30.9075 111.705 30.8273 111.991 30.6668C112.28 30.5042 112.505 30.2754 112.665 29.9801C112.828 29.6828 112.909 29.333 112.909 28.9309L113.153 28.9822H111.176V28.2763H113.679V28.9822C113.679 29.5234 113.564 29.994 113.333 30.3941C113.104 30.7941 112.787 31.1043 112.383 31.3246C111.981 31.5428 111.519 31.6519 110.997 31.6519C110.415 31.6519 109.903 31.515 109.463 31.2412C109.024 30.9674 108.682 30.578 108.436 30.0732C108.192 29.5683 108.07 28.9694 108.07 28.2763C108.07 27.7564 108.14 27.289 108.279 26.874C108.42 26.4569 108.619 26.1018 108.876 25.8087C109.132 25.5156 109.436 25.291 109.787 25.1348C110.138 24.9787 110.524 24.9006 110.945 24.9006C111.292 24.9006 111.615 24.953 111.914 25.0578C112.216 25.1605 112.484 25.3071 112.72 25.4974C112.957 25.6857 113.155 25.9114 113.313 26.1745C113.472 26.4355 113.581 26.7253 113.641 27.0441H112.819Z" fill="white"/>
<path d="M117.153 31.5621V26.6334H117.885V27.3778H117.936C118.026 27.1339 118.189 26.9361 118.424 26.7842C118.659 26.6323 118.924 26.5563 119.22 26.5563C119.275 26.5563 119.345 26.5574 119.428 26.5596C119.512 26.5617 119.575 26.5649 119.618 26.5692V27.3393C119.592 27.3329 119.533 27.3233 119.441 27.3104C119.351 27.2954 119.256 27.288 119.155 27.288C118.916 27.288 118.702 27.3382 118.514 27.4388C118.328 27.5372 118.18 27.6741 118.071 27.8495C117.964 28.0228 117.91 28.2206 117.91 28.4431V31.5621H117.153Z" fill="white"/>
<path d="M124.581 31.6648C124.136 31.6648 123.746 31.5589 123.41 31.3471C123.076 31.1353 122.815 30.839 122.627 30.4583C122.441 30.0775 122.348 29.6325 122.348 29.1234C122.348 28.61 122.441 28.1618 122.627 27.7789C122.815 27.396 123.076 27.0986 123.41 26.8869C123.746 26.6751 124.136 26.5692 124.581 26.5692C125.026 26.5692 125.416 26.6751 125.749 26.8869C126.085 27.0986 126.346 27.396 126.532 27.7789C126.721 28.1618 126.815 28.61 126.815 29.1234C126.815 29.6325 126.721 30.0775 126.532 30.4583C126.346 30.839 126.085 31.1353 125.749 31.3471C125.416 31.5589 125.026 31.6648 124.581 31.6648ZM124.581 30.9845C124.919 30.9845 125.197 30.8979 125.416 30.7246C125.634 30.5513 125.795 30.3235 125.9 30.0411C126.005 29.7587 126.057 29.4528 126.057 29.1234C126.057 28.794 126.005 28.487 125.9 28.2025C125.795 27.918 125.634 27.688 125.416 27.5126C125.197 27.3372 124.919 27.2494 124.581 27.2494C124.243 27.2494 123.965 27.3372 123.747 27.5126C123.529 27.688 123.367 27.918 123.263 28.2025C123.158 28.487 123.105 28.794 123.105 29.1234C123.105 29.4528 123.158 29.7587 123.263 30.0411C123.367 30.3235 123.529 30.5513 123.747 30.7246C123.965 30.8979 124.243 30.9845 124.581 30.9845Z" fill="white"/>
<path d="M133.291 29.547V26.6334H134.048V31.5621H133.291V30.7278H133.239C133.124 30.9781 132.944 31.1909 132.7 31.3663C132.456 31.5396 132.148 31.6263 131.776 31.6263C131.468 31.6263 131.194 31.5589 130.955 31.4241C130.715 31.2872 130.527 31.0818 130.39 30.808C130.253 30.5321 130.184 30.1844 130.184 29.7652V26.6334H130.942V29.7138C130.942 30.0732 131.042 30.3598 131.243 30.5738C131.447 30.7877 131.705 30.8946 132.02 30.8946C132.208 30.8946 132.4 30.8465 132.594 30.7503C132.791 30.654 132.956 30.5064 133.088 30.3074C133.223 30.1085 133.291 29.855 133.291 29.547Z" fill="white"/>
<path d="M137.649 33.4104V26.6334H138.38V27.4163H138.47C138.526 27.3307 138.603 27.2216 138.701 27.089C138.802 26.9542 138.945 26.8344 139.131 26.7296C139.319 26.6227 139.574 26.5692 139.895 26.5692C140.31 26.5692 140.676 26.6729 140.992 26.8804C141.309 27.0879 141.556 27.3821 141.733 27.7629C141.911 28.1436 142 28.5929 142 29.1106C142 29.6325 141.911 30.085 141.733 30.4679C141.556 30.8487 141.31 31.1439 140.995 31.3535C140.681 31.561 140.318 31.6648 139.908 31.6648C139.591 31.6648 139.338 31.6124 139.147 31.5075C138.957 31.4006 138.81 31.2797 138.708 31.1449C138.605 31.008 138.526 30.8947 138.47 30.8048H138.406V33.4104H137.649ZM138.393 29.0977C138.393 29.4699 138.448 29.7983 138.557 30.0828C138.666 30.3652 138.825 30.5866 139.035 30.747C139.244 30.9053 139.501 30.9845 139.805 30.9845C140.122 30.9845 140.386 30.9011 140.598 30.7342C140.811 30.5652 140.972 30.3385 141.079 30.0539C141.188 29.7673 141.243 29.4486 141.243 29.0977C141.243 28.7512 141.189 28.4388 141.082 28.1608C140.977 27.8805 140.818 27.6591 140.604 27.4965C140.392 27.3318 140.126 27.2494 139.805 27.2494C139.497 27.2494 139.238 27.3275 139.028 27.4837C138.819 27.6377 138.66 27.8538 138.554 28.1319C138.447 28.4078 138.393 28.7298 138.393 29.0977Z" fill="white"/>
</svg>
