<svg width="173" height="172" viewBox="0 0 173 172" fill="none" xmlns="http://www.w3.org/2000/svg">
<ellipse cx="86.5" cy="85.5743" rx="86" ry="85.5743" fill="#EBEBFF"/>
<path d="M125.72 73.153L129.331 114.98C129.62 118.385 127.541 121.372 124.688 121.615L45.3149 128.424C42.4775 128.672 39.9136 126.082 39.6402 122.682L36.0291 80.8499C35.9574 80.0646 36.0184 79.2728 36.2096 78.5078C36.7771 76.1709 38.5001 74.3808 40.6565 74.2209L120.029 67.4061C122.181 67.2204 124.156 68.67 125.142 70.8677C125.459 71.5923 125.655 72.3645 125.72 73.153Z" fill="#6E47FF"/>
<path opacity="0.1" d="M125.72 73.153L129.331 114.98C129.62 118.385 127.541 121.372 124.688 121.615L45.3149 128.424C42.4775 128.672 39.9136 126.082 39.6402 122.682L36.0291 80.8499C35.9574 80.0646 36.0184 79.2728 36.2096 78.5078C36.7771 76.1709 38.5001 74.3808 40.6565 74.2209L120.029 67.4061C122.181 67.2204 124.156 68.67 125.142 70.8677C125.459 71.5923 125.655 72.3645 125.72 73.153Z" fill="black"/>
<path d="M129.275 65.6729L134.465 108.573C134.883 112.061 132.85 115.207 129.941 115.558L48.5405 125.406C45.6309 125.757 42.9019 123.188 42.4789 119.696L37.2892 76.8003C37.1904 75.9937 37.2253 75.1762 37.3924 74.3809C37.9082 71.9614 39.6003 70.0785 41.8134 69.8102L123.214 59.9673C125.427 59.699 127.532 61.1177 128.599 63.3463C128.951 64.0793 129.18 64.8654 129.275 65.6729Z" fill="#6E47FF"/>
<path opacity="0.1" d="M128.597 63.3463L91.6761 88.2064C89.8691 89.4415 87.7914 90.2236 85.6185 90.4867C83.4457 90.7498 81.2414 90.4861 79.1918 89.7179L37.4058 74.3809C37.9216 71.9614 39.6137 70.0785 41.8268 69.8102L123.227 59.9673C125.425 59.699 127.53 61.1177 128.597 63.3463Z" fill="black"/>
<path d="M114.823 72.6165L104.217 79.7563L100.745 82.0984L91.6759 88.2063C89.9156 89.4141 87.8956 90.1902 85.7795 90.4716C83.6634 90.753 81.5107 90.5319 79.496 89.8262L79.171 89.7179L74.0845 87.8504L62.632 83.646L57.2772 81.6805L51.2104 79.4519L50.7719 68.7268L49.7866 44.8933L96.3858 43L114.148 56.4592L114.333 61.0351L114.823 72.6165Z" fill="#6E47FF"/>
<path opacity="0.7" d="M114.823 72.6165L104.217 79.7563L100.745 82.0984L91.6759 88.2063C89.9156 89.4141 87.8956 90.1902 85.7795 90.4716C83.6634 90.753 81.5107 90.5319 79.496 89.8262L79.171 89.7179L74.0845 87.8504L62.632 83.646L57.2772 81.6805L51.2104 79.4519L50.7719 68.7268L49.7866 44.8933L96.3858 43L114.148 56.4592L114.333 61.0351L114.823 72.6165Z" fill="#FAFAFA"/>
<g opacity="0.9">
<path d="M108.258 61.2003L56.6703 63.2948C56.3826 63.3061 56.1018 63.2046 55.8878 63.0118C55.6739 62.8191 55.5437 62.5504 55.5251 62.263C55.5151 61.9761 55.6172 61.6966 55.8098 61.4838C56.0025 61.271 56.2704 61.1415 56.5568 61.1229L108.145 59.0284C108.432 59.0171 108.713 59.1186 108.927 59.3114C109.141 59.5041 109.271 59.7728 109.29 60.0602C109.301 60.3474 109.199 60.6277 109.007 60.8408C108.814 61.0539 108.545 61.183 108.258 61.2003Z" fill="white"/>
<path d="M108.532 68.0563L56.9443 70.1508C56.6565 70.1622 56.3757 70.0607 56.1618 69.8679C55.9478 69.6752 55.8176 69.4064 55.799 69.1191C55.789 68.8316 55.8909 68.5516 56.0834 68.3379C56.2759 68.1242 56.5439 67.9937 56.8308 67.9738L108.419 65.8793C108.706 65.8693 108.986 65.9713 109.2 66.1638C109.413 66.3562 109.544 66.6242 109.564 66.9111C109.573 67.1982 109.47 67.4775 109.278 67.6909C109.086 67.9043 108.818 68.0352 108.532 68.0563Z" fill="white"/>
<path d="M108.808 74.9071L57.2203 77.0015C56.9326 77.0129 56.6518 76.9114 56.4378 76.7186C56.2239 76.5259 56.0937 76.2571 56.0751 75.9698C56.0638 75.6826 56.1654 75.4023 56.3583 75.1892C56.5512 74.9761 56.8199 74.847 57.1068 74.8297L108.695 72.7352C108.982 72.7239 109.262 72.8256 109.475 73.0185C109.688 73.2113 109.817 73.4801 109.835 73.767C109.846 74.0534 109.745 74.3329 109.553 74.5458C109.361 74.7588 109.094 74.8885 108.808 74.9071Z" fill="white"/>
<path d="M104.218 79.7563L100.746 82.0984L62.6326 83.6461L57.2778 81.6806C57.3224 81.6752 57.3674 81.6752 57.412 81.6806L104.218 79.7563Z" fill="white"/>
<path d="M90.0991 88.2942V88.3355C90.0997 88.6162 89.9934 88.8866 89.8017 89.0917C89.61 89.2967 89.3475 89.4211 89.0674 89.4395L79.5185 89.8264L79.1935 89.718L74.1069 87.8506L88.9797 87.2418C89.2664 87.2375 89.5436 87.3449 89.7525 87.5413C89.9615 87.7377 90.0858 88.0078 90.0991 88.2942Z" fill="white"/>
</g>
<path opacity="0.1" d="M114.169 56.4592L101.83 55.9279L96.4077 43L114.169 56.4592Z" fill="#263238"/>
<path d="M114.169 56.4592L102.196 54.4112L96.4077 43L114.169 56.4592Z" fill="#6E47FF"/>
<path d="M131.842 69.8286C134.967 66.9593 135.174 62.1001 132.305 58.9753C129.435 55.8505 124.576 55.6435 121.451 58.5128C118.327 61.3822 118.12 66.2414 120.989 69.3661C123.858 72.4909 128.717 72.698 131.842 69.8286Z" fill="#DE5753"/>
<path d="M128.169 60.4624V68.2006H126.033V63.1347C125.718 63.3777 125.381 63.5918 125.027 63.7743C124.634 63.9611 124.227 64.1163 123.81 64.2386V62.5104C124.415 62.3373 124.983 62.054 125.486 61.6747C125.883 61.3484 126.202 60.9378 126.42 60.4727L128.169 60.4624Z" fill="white"/>
</svg>
